/* XPM */
static char * mphd_favicon_xpm[] = {
"16 16 167 2",
"  	c #5091B7",
". 	c #4F91B7",
"+ 	c #5091B6",
"@ 	c #4F91B6",
"# 	c #4F90B6",
"$ 	c #4F8FB4",
"% 	c #4984A5",
"& 	c #4C89AC",
"* 	c #4E8EB3",
"= 	c #508FB5",
"- 	c #4D8BAE",
"; 	c #4F90B5",
"> 	c #4187B0",
", 	c #4087B0",
"' 	c #3E86B1",
") 	c #3A7DA4",
"! 	c #377597",
"~ 	c #3A7CA0",
"{ 	c #377598",
"] 	c #3F84AB",
"^ 	c #397A9F",
"/ 	c #35759A",
"( 	c #3F87B2",
"_ 	c #4086AE",
": 	c #3D81A7",
"< 	c #4288B1",
"[ 	c #4188B1",
"} 	c #4187B1",
"| 	c #5D92A1",
"1 	c #4B849C",
"2 	c #3D80A8",
"3 	c #3A799D",
"4 	c #377495",
"5 	c #4085AC",
"6 	c #4286AC",
"7 	c #578A98",
"8 	c #518EAA",
"9 	c #4087B1",
"0 	c #4689B0",
"a 	c #3E86B3",
"b 	c #F6D259",
"c 	c #98A274",
"d 	c #32749C",
"e 	c #4084AB",
"f 	c #3D7EA4",
"g 	c #3E83AC",
"h 	c #4D8DAB",
"i 	c #E9CD60",
"j 	c #A3B181",
"k 	c #3A84B3",
"l 	c #468BB3",
"m 	c #498DB5",
"n 	c #3D86B3",
"o 	c #FFD854",
"p 	c #A0AA77",
"q 	c #3982B2",
"r 	c #3D7FA5",
"s 	c #3E83AB",
"t 	c #4F8EAB",
"u 	c #F3D35D",
"v 	c #AEB681",
"w 	c #4088B7",
"x 	c #4A8DB4",
"y 	c #A0A977",
"z 	c #3982B1",
"A 	c #3B7B9F",
"B 	c #4387AE",
"C 	c #5E99B2",
"D 	c #F4D35D",
"E 	c #B2B984",
"F 	c #5195C0",
"G 	c #4C8FB6",
"H 	c #9AA577",
"I 	c #2773A9",
"J 	c #3078A7",
"K 	c #397EAB",
"L 	c #488FBE",
"M 	c #5595B7",
"N 	c #ADB681",
"O 	c #4D92BD",
"P 	c #5B9ABD",
"Q 	c #4389B1",
"R 	c #FFD954",
"S 	c #E1C65F",
"T 	c #C2BA6E",
"U 	c #C6BD70",
"V 	c #CEC373",
"W 	c #C6BE71",
"X 	c #CCC170",
"Y 	c #FCD558",
"Z 	c #B6BB84",
"` 	c #5296C0",
" .	c #478BB3",
"..	c #E8CD60",
"+.	c #D6C76F",
"@.	c #D3C56C",
"#.	c #D5C66C",
"$.	c #D1C36A",
"%.	c #D4C569",
"&.	c #FDD558",
"*.	c #B1B883",
"=.	c #3A85B4",
"-.	c #3D85B2",
";.	c #FFD855",
">.	c #A5AF82",
",.	c #3985BD",
"'.	c #337EB1",
").	c #3C81AF",
"!.	c #458DBE",
"~.	c #5394B8",
"{.	c #F4D25D",
"].	c #A9B37E",
"^.	c #3A85B5",
"/.	c #3F85AF",
"(.	c #4C91BA",
"_.	c #FFD755",
":.	c #A4AC79",
"<.	c #357AA6",
"[.	c #4687AC",
"}.	c #3D7DA1",
"|.	c #5494B8",
"1.	c #5994AF",
"2.	c #A9B37F",
"3.	c #5595BA",
"4.	c #458CB7",
"5.	c #FFD754",
"6.	c #A5AD7A",
"7.	c #4D90BA",
"8.	c #5596BB",
"9.	c #5592B3",
"0.	c #3F84AC",
"a.	c #4E8DAA",
"b.	c #5898BC",
"c.	c #5092B8",
"d.	c #3E86B2",
"e.	c #A1A977",
"f.	c #468CB8",
"g.	c #5394B9",
"h.	c #3B7DA2",
"i.	c #F5D35C",
"j.	c #AAB37D",
"k.	c #5293B8",
"l.	c #5192B7",
"m.	c #4D90B8",
"n.	c #D0C675",
"o.	c #91A88D",
"p.	c #4385AE",
"q.	c #3C7EA4",
"r.	c #39779A",
"s.	c #4A8BAC",
"t.	c #BCBB76",
"u.	c #89A58E",
"v.	c #3C86B3",
"w.	c #4388B1",
"x.	c #5294B9",
"y.	c #5797BB",
"z.	c #5998BC",
"A.	c #4282A7",
"B.	c #4186AE",
"C.	c #3E80A6",
"D.	c #4288B0",
"E.	c #4287B0",
"F.	c #4488B1",
"G.	c #4589B2",
"H.	c #4288AF",
"I.	c #4085AD",
"J.	c #4083AB",
"  . + . @ # $ % & . $ * @ = - ; ",
"> , , , ' ) ! ~ { ] ^ / ( > _ : ",
"< [ } [ | 1 2 3 4 5 6 7 8 9 } 0 ",
"< [ } a b c d e f g h i j k l m ",
"< [ } n o p q < r s t u v w x < ",
"< [ } n o y z < A B C D E F G < ",
"< [ } n o H I J K L M D N O P Q ",
"< [ } n R S T U V W X Y Z `  .< ",
"< [ } n R ..+.@.#.$.%.&.*.=.> < ",
"< [ } -.;.>.,.'.).!.~.{.].^.} < ",
"< > /.(._.:.<.[.}.|.1.D 2.^.} < ",
"> > 3.4.5.6.7.8.9.0.a.u 2.^.} < ",
" .b.c.d.5.e.f.g.h.g a.i.j.^.} < ",
"k.l.G m.n.o.p.q.r.0.s.t.u.v.} < ",
"w.. x.y.z.A.q.B.C.e [ 9 9 D.[ < ",
"E.< F.G.H.r I.< A J.< } } D.< < "};
